<svg width="16" height="16" viewBox="0 0 16 16" fill="none" xmlns="http://www.w3.org/2000/svg">
<path d="M8.60622 15.638C4.38747 15.638 0.959351 12.2068 0.959351 7.99115C0.959351 3.77552 4.3906 0.344269 8.60622 0.344269C8.86247 0.344269 9.11872 0.356769 9.37497 0.381769C9.59997 0.403644 9.79685 0.544269 9.8906 0.747394C9.98435 0.950519 9.9656 1.19114 9.8406 1.37864C9.12185 2.43489 8.7406 3.66927 8.7406 4.9474C8.7406 8.22865 11.2 10.9536 14.4656 11.2786C14.6906 11.3005 14.8875 11.4411 14.9812 11.6443C15.0781 11.8474 15.0562 12.088 14.9312 12.2755C13.5 14.3818 11.1375 15.638 8.60622 15.638ZM8.2156 1.63802C4.88747 1.84114 2.2406 4.61302 2.2406 7.99115C2.2406 11.5005 5.09685 14.3568 8.60622 14.3568C10.3687 14.3568 12.0312 13.6255 13.225 12.3661C11.7812 12.0005 10.4718 11.2161 9.44997 10.0974C8.1656 8.6849 7.45622 6.8599 7.45622 4.95365C7.45935 3.79427 7.71872 2.66615 8.2156 1.63802Z" fill="#999699"/>
</svg>
